<svg width="741" height="726" viewBox="0 0 741 726" fill="none" xmlns="http://www.w3.org/2000/svg">
<ellipse cx="370.5" cy="363" rx="370.5" ry="363" fill="#D4D9E9" fill-opacity="0.15"/>
<path d="M435.307 341.666C435.307 341.666 429.154 360.796 419.553 388.281C416.449 397.21 412.972 407.011 409.223 417.327C404 431.692 398.249 447.059 392.225 462.426C388.519 471.884 384.713 481.327 380.864 490.556C360.175 540.019 338.14 582.872 323.703 583.473C291.267 584.818 221.786 367.792 214.203 343.812C213.759 342.41 213.53 341.666 213.53 341.666H435.307Z" fill="#3F3D56"/>
<path opacity="0.1" d="M419.553 388.281C416.449 397.21 412.972 407.011 409.223 417.327L323.302 341.666H366.613L419.553 388.281Z" fill="black"/>
<path opacity="0.1" d="M392.225 462.426C388.519 471.884 384.713 481.327 380.864 490.556L214.203 343.812C213.759 342.41 213.53 341.666 213.53 341.666H255.081L392.225 462.426Z" fill="black"/>
<path d="M328.264 149.451C318.097 157.505 302.021 154.459 292.25 162.989C285.567 168.823 283.784 178.8 285.607 187.482C287.431 196.164 292.277 203.869 297.153 211.281C300.517 216.396 304.008 221.552 308.736 225.443C315.346 230.882 323.83 233.414 332.145 235.448C350.254 239.875 368.745 242.556 387.366 243.452C395.669 243.852 405.073 243.452 410.668 237.304C413.926 233.723 415.236 228.816 416.191 224.07C417.684 216.646 418.514 208.654 415.428 201.739C412.892 196.055 408.009 191.795 403.066 188.012C387.562 176.148 369.301 166.326 359.838 149.25C356.077 142.462 353.757 134.597 348.056 129.331C340.625 122.466 324.091 119.66 315.341 124.245C316.693 127.327 334.359 144.623 328.264 149.451Z" fill="#F25368"/>
<path d="M242.83 229.494C239.816 239.947 237.039 251.007 239.577 261.586C242.924 275.533 255.153 285.979 268.567 291.056C281.982 296.133 296.611 296.726 310.945 297.262L385.991 300.065C395.423 300.417 405.036 300.803 413.899 304.045C421.205 306.718 429.888 311.118 435.978 306.279C438.741 304.084 439.982 300.53 440.962 297.141C444.152 286.113 445.936 274.002 441.647 263.354C436.731 251.151 424.61 243.133 412.025 239.3C399.441 235.467 386.112 235.094 373.037 233.646C359.773 232.177 346.658 229.581 333.834 225.886C323.114 222.797 312.252 218.72 304.323 210.872C300.033 206.626 296.785 201.449 292.742 196.968C269.582 171.302 248.527 209.741 242.83 229.494Z" fill="#F25368"/>
<path d="M226.339 277.517C219.04 280.786 212.709 285.885 207.958 292.32C203.208 298.755 200.2 306.307 199.226 314.245C198.251 322.184 199.343 330.24 202.396 337.632C205.449 345.025 210.359 351.504 216.651 356.442C228.078 365.41 243.032 368.528 257.52 369.572C271.668 370.592 285.877 369.891 300.044 369.189L425.389 362.981C432.737 362.617 441.052 361.771 445.538 355.94C448.885 351.588 449.082 345.586 448.283 340.154C445.407 320.614 430.653 303.316 411.812 297.394C404.706 295.161 397.225 294.454 389.808 293.76L336.076 288.732C328.84 288.055 321.562 287.371 314.549 285.464C293.3 279.689 274.313 262.825 252.436 265.322C237.594 267.016 225.374 277.406 214.592 287.746" fill="#F25368"/>
<path opacity="0.1" d="M296.518 192.861C296.518 192.861 314.055 224.524 404.013 237.309L296.518 192.861Z" fill="black"/>
<path opacity="0.1" d="M246.758 275.793C246.758 275.793 279.348 308.757 413.845 308.757L246.758 275.793Z" fill="black"/>
<path d="M322.272 177.122C327.014 177.122 330.857 175.841 330.857 174.26C330.857 172.68 327.014 171.399 322.272 171.399C317.531 171.399 313.687 172.68 313.687 174.26C313.687 175.841 317.531 177.122 322.272 177.122Z" fill="#3F3D56"/>
<path d="M350.889 195.723C355.63 195.723 359.474 194.441 359.474 192.861C359.474 191.28 355.63 189.999 350.889 189.999C346.147 189.999 342.304 191.28 342.304 192.861C342.304 194.441 346.147 195.723 350.889 195.723Z" fill="#3F3D56"/>
<path d="M383.797 215.754C388.539 215.754 392.382 214.473 392.382 212.892C392.382 211.312 388.539 210.031 383.797 210.031C379.056 210.031 375.212 211.312 375.212 212.892C375.212 214.473 379.056 215.754 383.797 215.754Z" fill="#3F3D56"/>
<path d="M269.332 224.339C274.073 224.339 277.917 223.058 277.917 221.477C277.917 219.897 274.073 218.616 269.332 218.616C264.591 218.616 260.747 219.897 260.747 221.477C260.747 223.058 264.591 224.339 269.332 224.339Z" fill="#3F3D56"/>
<path d="M342.304 251.524C347.045 251.524 350.889 250.243 350.889 248.663C350.889 247.082 347.045 245.801 342.304 245.801C337.562 245.801 333.719 247.082 333.719 248.663C333.719 250.243 337.562 251.524 342.304 251.524Z" fill="#3F3D56"/>
<path d="M239.285 307.326C244.026 307.326 247.87 306.045 247.87 304.464C247.87 302.884 244.026 301.603 239.285 301.603C234.544 301.603 230.7 302.884 230.7 304.464C230.7 306.045 234.544 307.326 239.285 307.326Z" fill="#3F3D56"/>
<path d="M293.656 254.386C298.397 254.386 302.241 253.105 302.241 251.524C302.241 249.944 298.397 248.663 293.656 248.663C288.915 248.663 285.071 249.944 285.071 251.524C285.071 253.105 288.915 254.386 293.656 254.386Z" fill="#3F3D56"/>
<path d="M260.747 328.788C265.489 328.788 269.332 327.507 269.332 325.927C269.332 324.346 265.489 323.065 260.747 323.065C256.006 323.065 252.162 324.346 252.162 325.927C252.162 327.507 256.006 328.788 260.747 328.788Z" fill="#3F3D56"/>
<path d="M316.549 315.911C321.29 315.911 325.134 314.63 325.134 313.049C325.134 311.469 321.29 310.188 316.549 310.188C311.808 310.188 307.964 311.469 307.964 313.049C307.964 314.63 311.808 315.911 316.549 315.911Z" fill="#3F3D56"/>
<path d="M350.173 384.59C355.31 384.59 359.474 375.942 359.474 365.274C359.474 354.606 355.31 345.958 350.173 345.958C345.037 345.958 340.873 354.606 340.873 365.274C340.873 375.942 345.037 384.59 350.173 384.59Z" fill="#F25368"/>
<path d="M361.62 391.744C366.756 391.744 370.92 383.096 370.92 372.428C370.92 361.76 366.756 353.112 361.62 353.112C356.483 353.112 352.319 361.76 352.319 372.428C352.319 383.096 356.483 391.744 361.62 391.744Z" fill="#F25368"/>
<path d="M342.537 558.682C342.614 558.3 344.543 549.165 354.632 535.838C363.889 523.612 382.097 505.418 416.273 488.179C481.018 455.521 495.506 394.165 495.645 393.548L497.375 393.939C497.34 394.095 493.716 409.804 482.053 429.353C466.575 455.256 444.034 476.212 417.072 489.763C352.437 522.365 344.35 558.671 344.275 559.034L342.537 558.682Z" fill="#3F3D56"/>
<path d="M498.956 386.984C505.321 386.984 510.481 381.824 510.481 375.459C510.481 369.095 505.321 363.935 498.956 363.935C492.591 363.935 487.431 369.095 487.431 375.459C487.431 381.824 492.591 386.984 498.956 386.984Z" fill="#F25368"/>
<path d="M496.675 442.9C503.04 442.9 508.2 437.74 508.2 431.376C508.2 425.011 503.04 419.851 496.675 419.851C490.311 419.851 485.151 425.011 485.151 431.376C485.151 437.74 490.311 442.9 496.675 442.9Z" fill="#3F3D56"/>
<path d="M459.185 446.824C465.55 446.824 470.71 441.665 470.71 435.3C470.71 428.935 465.55 423.775 459.185 423.775C452.82 423.775 447.661 428.935 447.661 435.3C447.661 441.665 452.82 446.824 459.185 446.824Z" fill="#F25368"/>
<path d="M465.012 484.87C471.377 484.87 476.537 479.71 476.537 473.345C476.537 466.981 471.377 461.821 465.012 461.821C458.648 461.821 453.488 466.981 453.488 473.345C453.488 479.71 458.648 484.87 465.012 484.87Z" fill="#F25368"/>
<path d="M411.094 485.651C417.459 485.651 422.618 480.491 422.618 474.126C422.618 467.761 417.459 462.601 411.094 462.601C404.729 462.601 399.569 467.761 399.569 474.126C399.569 480.491 404.729 485.651 411.094 485.651Z" fill="#3F3D56"/>
<path d="M347.354 563.727C347.354 563.727 358.192 535.089 398.011 542.996L347.354 563.727Z" fill="#3F3D56"/>
<path d="M337.311 553.713C337.311 553.713 353.977 528.026 324.034 500.613L337.311 553.713Z" fill="#3F3D56"/>
</svg>
