<?xml version="1.0" encoding="iso-8859-1"?>
<!-- Generator: Adobe Illustrator 19.0.0, SVG Export Plug-In . SVG Version: 6.00 Build 0)  -->
<svg version="1.1" id="Capa_1" xmlns="http://www.w3.org/2000/svg" xmlns:xlink="http://www.w3.org/1999/xlink" x="0px" y="0px"
	 viewBox="0 0 512 512" style="enable-background:new 0 0 512 512;" xml:space="preserve">
<g>
	<path style="fill:#FDC464;" d="M313.618,211.545L363.39,17.429c1.812-7.065,9.008-11.324,16.073-9.513
		c7.065,1.812,11.324,9.008,9.513,16.073c-0.03,0.118-0.078,0.291-0.111,0.407l-55.949,192.427
		c-1.543,5.305-7.094,8.356-12.399,6.813C315.319,222.125,312.29,216.75,313.618,211.545z"/>
	<path style="fill:#FDC464;" d="M356.709,210.663l77.753-184.696c2.83-6.722,10.574-9.878,17.296-7.048
		c6.722,2.83,9.878,10.574,7.048,17.296c-0.047,0.112-0.12,0.276-0.17,0.386l-83.615,182.118c-2.305,5.021-8.245,7.223-13.266,4.917
		C356.837,221.378,354.631,215.616,356.709,210.663z"/>
</g>
<path style="fill:#E6B25B;" d="M342.357,99.459l-28.739,112.086c-1.328,5.205,1.701,10.58,6.898,12.091
	c5.305,1.542,10.857-1.508,12.399-6.813l28.696-98.693C355.808,111.307,349.36,105.051,342.357,99.459z"/>
<path style="fill:#E6CD2E;" d="M256,316.427c-59.892,0-108.619-48.726-108.619-108.619c0-59.892,48.727-108.619,108.619-108.619
	s108.619,48.727,108.619,108.619C364.619,267.701,315.892,316.427,256,316.427z"/>
<path style="fill:#E6BA00;" d="M256,281.762c-40.778,0-73.953-33.175-73.953-73.953s33.176-73.953,73.953-73.953
	s73.953,33.176,73.953,73.953C329.953,248.587,296.778,281.762,256,281.762z"/>
<circle style="fill:#E6CD2E;" cx="256.001" cy="207.81" r="39.29"/>
<path style="fill:#E6B25B;" d="M385.009,143.438l-28.3,67.225c-2.079,4.954,0.127,10.715,5.046,12.973
	c5.021,2.305,10.96,0.104,13.266-4.917l31.338-68.256C399.506,147.564,392.37,145.211,385.009,143.438z"/>
<path style="fill:#FEE333;" d="M352.55,386.829c59.892,0,108.619-48.726,108.619-108.619c0-59.892-48.727-108.619-108.619-108.619
	S243.931,218.317,243.931,278.21S292.658,386.829,352.55,386.829z"/>
<path style="fill:#FECE00;" d="M352.55,352.163c40.778,0,73.953-33.175,73.953-73.953s-33.176-73.953-73.953-73.953
	s-73.953,33.176-73.953,73.953C278.597,318.988,311.772,352.163,352.55,352.163z"/>
<circle style="fill:#FEE333;" cx="352.551" cy="278.21" r="39.29"/>
<rect x="165.491" y="422.11" style="fill:#EEECED;" width="181.02" height="82.39"/>
<rect x="165.491" y="422.11" style="fill:#D4D2D3;" width="40" height="82.39"/>
<path style="fill:#FECE00;" d="M159.45,386.829c-59.892,0-108.619-48.726-108.619-108.619c0-59.892,48.727-108.619,108.619-108.619
	s108.619,48.727,108.619,108.619C268.069,338.103,219.342,386.829,159.45,386.829z"/>
<path style="fill:#FEE333;" d="M159.45,352.163c-40.778,0-73.953-33.175-73.953-73.953s33.176-73.953,73.953-73.953
	s73.953,33.176,73.953,73.953C233.403,318.988,200.228,352.163,159.45,352.163z"/>
<circle style="fill:#FECE00;" cx="159.451" cy="278.21" r="39.29"/>
<path style="fill:#F9545B;" d="M256,281.762L29.127,309.387c9.474,83.808,80.609,148.929,166.941,148.929h119.863
	c86.332,0,157.467-65.121,166.941-148.929L256,281.762z"/>
<path style="fill:#E64047;" d="M69.127,309.387L276,284.197l-20-2.435L29.127,309.387c9.474,83.808,80.609,148.929,166.941,148.929
	h40C149.736,458.316,78.601,393.195,69.127,309.387z"/>
<path style="fill:#EEECED;" d="M483.949,268.152v22.146c0,6.457-0.362,12.823-1.076,19.089H29.127
	c-0.714-6.266-1.076-12.632-1.076-19.089v-22.146H483.949z"/>
<path style="fill:#D4D2D3;" d="M68.051,268.152h-40v22.146c0,6.457,0.362,12.823,1.076,19.089h40
	c-0.714-6.266-1.076-12.632-1.076-19.089C68.051,290.298,68.051,268.152,68.051,268.152z"/>
<path d="M187.845,373.732V360.04c0-4.142-3.358-7.5-7.5-7.5s-7.5,3.358-7.5,7.5v13.692c0,4.142,3.358,7.5,7.5,7.5
	S187.845,377.874,187.845,373.732z"/>
<path d="M339.155,373.732V360.04c0-4.142-3.358-7.5-7.5-7.5s-7.5,3.358-7.5,7.5v13.692c0,4.142,3.358,7.5,7.5,7.5
	S339.155,377.874,339.155,373.732z"/>
<path d="M256,391.351c11.105,0,21.526-4.634,28.589-12.714c2.727-3.119,2.408-7.857-0.71-10.583
	c-3.119-2.726-7.857-2.408-10.583,0.711c-4.215,4.821-10.519,7.586-17.296,7.586s-13.081-2.765-17.295-7.587
	c-2.726-3.118-7.464-3.437-10.583-0.711s-3.437,7.464-0.711,10.583C234.474,386.717,244.895,391.351,256,391.351z"/>
<path d="M358.944,154.163l37.132-127.707c0.051-0.179,0.125-0.446,0.165-0.604c1.375-5.358,0.58-10.93-2.238-15.69
	c-2.817-4.759-7.319-8.137-12.676-9.511c-11.056-2.834-22.365,3.854-25.201,14.915l-26.349,102.766
	c-20.412-16.799-46.376-26.642-73.776-26.642c-46.471,0-88.83,28.285-106.924,70.868c-25.289,2.26-49.14,12.742-68.05,30.09
	c-19.639,18.017-32.385,41.958-36.354,68.005H28.051c-4.142,0-7.5,3.358-7.5,7.5v22.146c0,6.677,0.378,13.379,1.124,19.931
	c1.604,14.193,4.959,28.181,9.971,41.574c1.428,3.816,5.845,5.822,9.653,4.396c3.879-1.452,5.848-5.773,4.396-9.653
	c-3.596-9.61-6.259-19.553-7.947-29.659h363.336c4.142,0,7.5-3.358,7.5-7.5s-3.358-7.5-7.5-7.5H35.964
	c-0.274-3.843-0.413-26.235-0.413-26.235h440.898c0,0-0.138,22.392-0.413,26.235h-44.953c-4.142,0-7.5,3.358-7.5,7.5
	s3.358,7.5,7.5,7.5h43.174c-11.149,67.174-63.38,119.158-129.001,131.254c-0.034,0.006-0.068,0.007-0.102,0.013
	c-9.603,1.766-19.435,2.661-29.223,2.661H196.069c-7.011,0-14.061-0.431-21.008-1.378c-0.051-0.007-0.102-0.012-0.153-0.019
	c-20.915-2.773-41.133-9.636-59.385-20.25c-23.643-13.748-43.53-33.443-57.512-56.956c-2.117-3.56-6.719-4.73-10.28-2.613
	c-3.56,2.117-4.73,6.719-2.613,10.28c15.283,25.702,37.021,47.23,62.865,62.257c15.581,9.06,32.473,15.601,50.007,19.488V504.5
	c0,4.142,3.358,7.5,7.5,7.5h181.021c4.142,0,7.5-3.358,7.5-7.5v-42.832c71.823-15.862,127.751-75.691,136.315-151.445
	c0.745-6.544,1.123-13.247,1.123-19.923v-22.146c0-4.142-3.358-7.5-7.5-7.5h-16.621c-3.97-26.047-16.715-49.988-36.354-68.005
	c-8.221-7.542-17.379-13.783-27.181-18.619l61.675-134.331c0.072-0.159,0.176-0.396,0.251-0.573
	c4.429-10.524-0.528-22.689-11.05-27.118c-10.525-4.431-22.689,0.527-27.119,11.05l-58.996,140.14
	c-1.868-0.259-3.745-0.471-5.63-0.64C361.707,159.692,360.375,156.894,358.944,154.163z M339.011,464.302v32.697H172.989v-32.697
	c7.649,1.006,15.364,1.513,23.08,1.513h119.863c7.678,0,15.363-0.507,22.976-1.501C338.942,464.309,338.977,464.306,339.011,464.302
	z M370.656,19.291c0.782-3.048,3.897-4.891,6.945-4.11c1.477,0.378,2.717,1.31,3.494,2.621c0.776,1.312,0.995,2.847,0.613,4.338
	l-33.489,115.187c-1.896-2.476-3.892-4.876-5.982-7.196L370.656,19.291z M256,106.689c35.787,0,68.781,19.268,86.833,49.375
	c0.055,0.092,2.401,4.178,3.424,6.194c-6.247,0.335-12.476,1.188-18.589,2.518c-0.75,0.163-1.498,0.33-2.243,0.507
	c-14.793-24.158-40.866-38.929-69.425-38.929s-54.633,14.772-69.426,38.929c-5.011-1.198-10.131-2.063-15.332-2.589
	c-1.828-0.184-3.664-0.337-5.499-0.437C182.811,128.624,217.816,106.689,256,106.689z M280.021,187.519
	c-8.706,6.955-16.377,15.221-22.736,24.367c-0.431,0.62-0.865,1.237-1.284,1.867c-0.089-0.133-0.878-1.282-1.185-1.722
	c-6.537-9.437-14.336-17.739-23.107-24.73c5.976-7.075,14.819-11.281,24.292-11.281c9.474,0,18.316,4.206,24.291,11.281
	C280.201,187.373,280.111,187.447,280.021,187.519z M309.804,170.206c-4.994,1.984-9.853,4.306-14.528,6.955
	c-0.893,0.506-1.777,1.027-2.656,1.558c-8.79-11.064-22.198-17.699-36.619-17.699c-14.42,0-27.829,6.635-36.619,17.699
	c-5.702-3.44-11.7-6.387-17.933-8.801c12.349-17.808,32.55-28.563,54.552-28.563c22.003,0,42.203,10.753,54.551,28.563
	C310.303,170.014,310.052,170.108,309.804,170.206z M91.167,203.699c18.443-16.92,43.243-26.609,68.283-26.609
	c18.252,0,36.494,5.094,52.118,14.523c24.608,14.849,42.366,40.469,47.418,68.792c0.015,0.083,0.029,0.165,0.044,0.247h-20.071
	c-8.137-36.852-41.211-63.896-79.51-63.896s-71.373,27.044-79.51,63.896H59.865C63.697,238.856,74.628,218.872,91.167,203.699z
	 M132.942,260.652c5.767-8.697,15.63-14.23,26.508-14.23s20.741,5.534,26.508,14.23H132.942z M202.827,260.652
	c-7.061-17.468-24.143-29.23-43.377-29.23s-36.316,11.763-43.377,29.23H95.371c7.794-28.401,33.963-48.896,64.079-48.896
	s56.285,20.495,64.079,48.896H202.827z M326.043,260.652c5.767-8.697,15.63-14.23,26.508-14.23s20.741,5.534,26.508,14.23H326.043z
	 M395.928,260.652c-7.061-17.468-24.143-29.23-43.377-29.23s-36.316,11.763-43.377,29.23h-20.703
	c7.794-28.401,33.963-48.896,64.079-48.896s56.285,20.495,64.079,48.896H395.928z M452.136,260.652H432.06
	c-8.137-36.852-41.211-63.896-79.51-63.896c-37.281,0-69.607,25.629-78.804,60.983c-0.06-0.334-0.115-0.67-0.178-1.004
	c-1.819-9.685-4.9-19.168-9.114-28.075c0.126-0.224,0.252-0.448,0.38-0.67c6.096-10.59,14.229-20.177,23.674-27.933
	c0.022-0.018,0.045-0.036,0.067-0.054c17.813-14.485,40.97-22.913,63.975-22.913c24.961,0,49.902,9.746,68.283,26.609
	C437.372,218.872,448.304,238.856,452.136,260.652z M383.527,166.29l57.849-137.415c1.221-2.9,4.574-4.266,7.474-3.045
	c2.9,1.221,4.266,4.573,3.051,7.458l-61.97,134.982c-0.033-0.011-0.067-0.021-0.1-0.033
	C387.748,167.532,385.647,166.875,383.527,166.29z"/>
<g>
</g>
<g>
</g>
<g>
</g>
<g>
</g>
<g>
</g>
<g>
</g>
<g>
</g>
<g>
</g>
<g>
</g>
<g>
</g>
<g>
</g>
<g>
</g>
<g>
</g>
<g>
</g>
<g>
</g>
</svg>
